<svg xmlns="http://www.w3.org/2000/svg" version="1.1" xmlns:xlink="http://www.w3.org/1999/xlink" width="512" height="512" x="0" y="0" viewBox="0 0 68 68" style="enable-background:new 0 0 512 512" xml:space="preserve"><g><path fill="#d6d6d6" fill-rule="evenodd" d="M1 28a1 1 0 1 1 0-2 1 1 0 0 1 0 2zm66 0a1 1 0 1 1 0-2 1 1 0 0 1 0 2zm0-14a1 1 0 1 1 0-2 1 1 0 0 1 0 2zm0 28a1 1 0 1 1 0-2 1 1 0 0 1 0 2zm0 14a1 1 0 1 1 0-2 1 1 0 0 1 0 2zM40 1a1 1 0 1 1 2 0 1 1 0 0 1-2 0zm14 0a1 1 0 1 1 2 0 1 1 0 0 1-2 0zM26 1a1 1 0 1 1 2 0 1 1 0 0 1-2 0zM12 1a1 1 0 1 1 2 0 1 1 0 0 1-2 0zm28 66a1 1 0 1 1 2 0 1 1 0 0 1-2 0zm14 0a1 1 0 1 1 2 0 1 1 0 0 1-2 0zm-28 0a1 1 0 1 1 2 0 1 1 0 0 1-2 0zm-14 0a1 1 0 1 1 2 0 1 1 0 0 1-2 0zM1 14a1 1 0 1 1 0-2 1 1 0 0 1 0 2zm0 28a1 1 0 1 1 0-2 1 1 0 0 1 0 2zm0 14a1 1 0 1 1 0-2 1 1 0 0 1 0 2zm12-27a2 2 0 1 1 0-4 2 2 0 0 1 0 4zm42 0a2 2 0 1 1 0-4 2 2 0 0 1 0 4zM41 15a2 2 0 1 1 0-4 2 2 0 0 1 0 4zm0 42a2 2 0 1 1 0-4 2 2 0 0 1 0 4zM27 15a2 2 0 1 1 0-4 2 2 0 0 1 0 4zm14 15a3 3 0 1 1 0-6 3 3 0 0 1 0 6zm-14 0a3 3 0 1 1 0-6 3 3 0 0 1 0 6zm14 14a3 3 0 1 1 0-6 3 3 0 0 1 0 6zm-14 0a3 3 0 1 1 0-6 3 3 0 0 1 0 6zm0 13a2 2 0 1 1 0-4 2 2 0 0 1 0 4zM13 14a1 1 0 1 1 0-2 1 1 0 0 1 0 2zm42 0a1 1 0 1 1 0-2 1 1 0 0 1 0 2zM13 43a2 2 0 1 1 0-4 2 2 0 0 1 0 4zm42 0a2 2 0 1 1 0-4 2 2 0 0 1 0 4zM13 56a1 1 0 1 1 0-2 1 1 0 0 1 0 2zm42 0a1 1 0 1 1 0-2 1 1 0 0 1 0 2z" opacity="1" data-original="#000000"></path></g></svg>