<svg height="24" viewBox="0 0 24 24" width="24" xmlns="http://www.w3.org/2000/svg"><path d="m3 4a1 1 0 1 1 1-1 1 1 0 0 1 -1 1zm0 4.5a.5.5 0 1 0 .5.5.5.5 0 0 0 -.5-.5zm0 6a.5.5 0 1 0 .5.5.5.5 0 0 0 -.5-.5zm1 6.5a1 1 0 1 0 -1 1 1 1 0 0 0 1-1zm5-19a1 1 0 1 0 1 1 1 1 0 0 0 -1-1zm.5 7a.5.5 0 1 0 -.5.5.5.5 0 0 0 .5-.5zm.5 6a1 1 0 1 0 -1 1 1 1 0 0 0 1-1zm-1.5 6a.5.5 0 1 0 .5-.5.5.5 0 0 0 -.5.5zm7-18a.5.5 0 1 0 -.5.5.5.5 0 0 0 .5-.5zm-.5 5a1 1 0 1 0 1 1 1 1 0 0 0 -1-1zm.5 7a.5.5 0 1 0 -.5.5.5.5 0 0 0 .5-.5zm-1.5 6a1 1 0 1 0 1-1 1 1 0 0 0 -1 1zm7-19a1 1 0 1 0 1 1 1 1 0 0 0 -1-1zm.5 7a.5.5 0 1 0 -.5.5.5.5 0 0 0 .5-.5zm-.5 5a1 1 0 1 0 1 1 1 1 0 0 0 -1-1zm0 6.5a.5.5 0 1 0 .5.5.5.5 0 0 0 -.5-.5z"/></svg>